<svg xmlns="http://www.w3.org/2000/svg" width="1200" height="630" viewBox="0 0 1200 630" fill="none"><rect width="1200" height="630" fill="#083F40"/><path d="M0 510C180 510 235 470 350 355C465 240 560 120 780 120C930 120 1015 180 1200 180" stroke="#42C9BD" stroke-width="2" opacity=".28"/><path d="M0 545C190 545 255 500 365 390C480 275 570 155 785 155C925 155 1015 210 1200 210" stroke="#F2E7D8" stroke-width="1" opacity=".16"/><circle cx="365" cy="390" r="7" fill="#F27662"/><circle cx="785" cy="155" r="7" fill="#F27662"/><g transform="translate(92 115)" fill="none" stroke="#F2E7D8" stroke-width="15" stroke-linecap="round" stroke-linejoin="round"><path d="M0 0L58 125L116 0"/><path d="M116 0L178 125L240 0"/><path d="M92 76H165"/></g><circle cx="270" cy="115" r="8" fill="#F27662"/><text x="95" y="330" fill="#F2E7D8" font-family="Arial, sans-serif" font-size="104" font-weight="700" letter-spacing="-4">VIA</text><text x="102" y="385" fill="#42C9BD" font-family="Arial, sans-serif" font-size="24" font-weight="700" letter-spacing="8">FRANCHISE</text><text x="102" y="445" fill="#F2E7D8" font-family="Arial, sans-serif" font-size="30" font-weight="500">The franchise economy, connected.</text><text x="102" y="505" fill="#F2E7D8" font-family="Arial, sans-serif" font-size="18" opacity=".65" letter-spacing="2">DISCOVERY  •  CONNECTION  •  INTELLIGENCE  •  EXPANSION  •  GROWTH</text></svg>